# Blender v2.80 (sub 75) OBJ File: ''
# www.blender.org
mtllib new_tritanium_crate.mtl
o new_tritanium_crate
v 0.997900 -0.000000 0.787300
v 0.921300 -0.000000 0.863900
v 0.078700 -0.000000 0.863900
v 0.078700 -0.000000 0.136100
v 0.002100 -0.000000 0.787300
v 0.002100 -0.000000 0.212800
v 0.921300 -0.000000 0.136200
v 0.997900 -0.000000 0.212800
v 0.921300 0.766000 0.212800
v 0.691500 0.766000 0.212800
v 0.691500 0.766000 0.787200
v 0.921300 0.766000 0.787200
v 0.308500 0.727700 0.289300
v 0.308500 0.727700 0.710600
v 0.691500 0.727700 0.710600
v 0.691500 0.727700 0.289400
v 0.078700 0.766000 0.212800
v 0.078700 0.766000 0.787200
v 0.308500 0.766000 0.787200
v 0.308500 0.766000 0.212800
v 0.308500 0.459600 0.136100
v 0.691500 0.459600 0.136100
v 0.921300 0.689400 0.136100
v 0.308500 0.459600 0.174400
v 0.308500 0.612800 0.174500
v 0.691500 0.612800 0.174500
v 0.691500 0.459600 0.174400
v 0.078700 0.689400 0.136100
v 0.308500 0.689400 0.136100
v 0.002100 0.689400 0.787200
v 0.002100 0.689400 0.212800
v 0.308500 0.459600 0.863800
v 0.078700 0.689400 0.863800
v 0.691500 0.459600 0.825500
v 0.691500 0.612800 0.825500
v 0.308500 0.612800 0.825500
v 0.308500 0.459600 0.825500
v 0.997900 0.689400 0.212800
v 0.997900 0.689400 0.787300
v 0.691500 0.689400 0.136100
v 0.691500 0.459600 0.863800
v 0.308500 0.689400 0.863800
v 0.921300 0.689400 0.863800
v 0.691500 0.689400 0.863800
vt 0.468800 0.687500
vt 0.500000 0.656300
vt 0.843800 0.656300
vt 0.843800 0.953100
vt 0.875000 0.687500
vt 0.875000 0.921900
vt 0.500000 0.953100
vt 0.468800 0.921900
vt 0.031300 0.156300
vt 0.156300 0.156300
vt 0.156300 0.453100
vt 0.031300 0.453100
vt 0.156300 0.406300
vt 0.156300 0.203100
vt 0.312500 0.203100
vt 0.312500 0.406300
vt 0.437500 0.156300
vt 0.437500 0.453100
vt 0.312500 0.453100
vt 0.312500 0.156300
vt 0.843800 -0.000000
vt 0.750000 0.187500
vt 0.593800 0.187500
vt 0.500000 -0.000000
vt 0.500000 0.281300
vt 0.156300 0.515600
vt 0.156300 0.468800
vt 0.312500 0.468800
vt 0.312500 0.515600
vt 0.843800 0.281300
vt 0.750000 0.281300
vt 0.078100 0.531300
vt 0.375000 0.812500
vt 0.078100 0.812500
vt 0.500000 0.328100
vt 0.593800 0.515600
vt 0.500000 0.609400
vt 0.312500 0.093800
vt 0.312500 0.140600
vt 0.156300 0.140600
vt 0.156300 0.093800
vt 0.078100 0.531300
vt 0.375000 0.531300
vt 0.375000 0.812500
vt 0.078100 0.812500
vt 0.062500 0.968800
vt 0.062500 0.890600
vt 0.078100 0.890600
vt 0.078100 0.937500
vt 0.156300 0.531300
vt 0.312500 0.531300
vt 0.312500 0.078100
vt 0.156300 0.078100
vt 0.085200 1.000000
vt 0.125000 0.984400
vt 0.328100 0.984400
vt 0.368300 1.000000
vt 0.078100 0.937500
vt 0.062500 0.968800
vt 0.062500 0.890600
vt 0.078100 0.890600
vt 0.500000 0.328100
vt 0.453100 0.281300
vt 0.890600 0.281300
vt 0.843800 0.328100
vt 0.843800 0.656300
vt 0.843800 0.609400
vt 0.890600 0.609400
vt 0.453100 0.609400
vt 0.500000 0.656300
vt 0.593800 0.281300
vt 0.593800 0.328100
vt 0.750000 0.609400
vt 0.750000 0.656300
vt 0.375000 0.859400
vt 0.078100 0.859400
vt 0.750000 0.328100
vt 0.078100 0.859400
vt 0.375000 0.859400
vt 0.593800 0.609400
vt 0.593800 0.656300
vt 0.453100 -0.000000
vt 0.890600 -0.000000
vt 0.453100 0.328100
vt 0.843800 0.328100
vt 0.890600 0.328100
vt 0.375000 0.937500
vt 0.390600 0.968800
vt 0.368300 1.000000
vt 0.328100 0.984400
vt 0.375000 0.890600
vt 0.390600 0.890600
vt 0.125000 0.984400
vt 0.085200 1.000000
vt 0.375000 0.937500
vt 0.390600 0.968800
vt 0.375000 0.890600
vt 0.390600 0.890600
vt 0.375000 0.531300
vt 0.750000 0.515600
vn -0.0000 -1.0000 0.0000
vn 0.0000 1.0000 0.0000
vn 0.0001 -0.0001 -1.0000
vn 0.0000 -0.0000 -1.0000
vn -0.0001 0.0001 -1.0000
vn 0.0000 0.0001 -1.0000
vn -1.0000 0.0000 -0.0000
vn -0.0000 -0.0001 1.0000
vn 0.0001 0.0002 1.0000
vn 0.0001 0.0001 1.0000
vn 0.0000 0.0000 1.0000
vn 1.0000 0.0000 0.0000
vn 0.0001 0.7070 -0.7073
vn 0.0000 0.7071 0.7071
vn 0.5774 0.5774 -0.5772
vn -0.5774 0.5774 -0.5772
vn 0.5772 0.5774 0.5774
vn -0.5773 0.5774 0.5774
vn 0.0000 0.7071 -0.7071
vn 0.7071 0.7071 -0.0000
vn -0.0000 0.7072 -0.7070
vn -0.7071 0.7071 -0.0000
vn 0.7073 -0.0001 -0.7069
vn -0.7072 -0.0000 -0.7070
vn -0.7071 0.0001 0.7071
vn 0.7069 0.0001 0.7073
vn -0.0001 0.0001 1.0000
vn -0.0001 0.0002 1.0000
usemtl crate
f 1/1/1 2/2/1 3/3/1 4/4/1
f 3/3/1 5/5/1 6/6/1 4/4/1
f 1/1/1 4/4/1 7/7/1 8/8/1
f 9/9/2 10/10/2 11/11/2 12/12/2
f 13/13/2 14/14/2 15/15/2 16/16/2
f 17/17/2 18/18/2 19/19/2 20/20/2
f 4/21/3 21/22/4 22/23/3 7/24/5
f 7/24/5 22/23/3 23/25/3
f 24/26/6 25/27/6 26/28/6 27/29/6
f 21/22/4 28/30/4 29/31/4
f 6/32/7 30/33/7 31/34/7
f 3/35/8 32/36/9 33/37/10
f 34/38/11 35/39/11 36/40/11 37/41/11
f 1/42/12 8/43/12 38/44/12 39/45/12
f 40/46/7 22/47/7 27/48/7 26/49/7
f 21/50/2 24/26/2 27/29/2 22/51/2
f 41/52/2 34/38/2 37/41/2 32/53/2
f 10/54/7 16/55/7 15/56/7 11/57/7
f 10/54/7 40/46/7 26/49/7 16/55/7
f 36/58/12 42/59/12 32/60/12 37/61/12
f 16/16/13 26/28/13 25/27/13 13/13/13
f 14/14/14 36/40/14 35/39/14 15/15/14
f 9/62/15 38/63/15 23/25/15
f 28/30/16 31/64/16 17/65/16
f 12/66/17 43/67/17 39/68/17
f 30/69/18 33/37/18 18/70/18
f 9/62/19 23/25/19 40/71/19 10/72/19
f 44/73/14 43/67/14 12/66/14 11/74/14
f 9/75/20 12/76/20 39/45/20 38/44/20
f 29/31/21 28/30/21 17/65/21 20/77/21
f 17/78/22 31/34/22 30/33/22 18/79/22
f 18/70/14 33/37/14 42/80/14 19/81/14
f 7/24/23 23/25/23 38/63/23 8/82/23
f 4/21/24 6/83/24 31/64/24 28/30/24
f 5/84/25 3/35/25 33/37/25 30/69/25
f 39/68/26 43/67/26 2/85/26 1/86/26
f 25/87/12 29/88/12 20/89/12 13/90/12
f 25/87/12 24/91/12 21/92/12 29/88/12
f 14/93/12 13/90/12 20/89/12 19/94/12
f 36/58/12 14/93/12 19/94/12 42/59/12
f 35/95/7 44/96/7 11/57/7 15/56/7
f 35/95/7 34/97/7 41/98/7 44/96/7
f 22/23/3 40/71/4 23/25/3
f 21/22/4 4/21/3 28/30/4
f 6/32/7 5/99/7 30/33/7
f 43/67/27 44/73/11 41/100/28
f 32/36/9 42/80/11 33/37/10
f 2/85/8 43/67/27 41/100/28
f 2/85/8 41/100/28 32/36/9 3/35/8
